<?xml version="1.0" encoding="utf-8"?>
<!-- Generator: Adobe Illustrator 26.0.0, SVG Export Plug-In . SVG Version: 6.00 Build 0)  -->
<svg version="1.1" id="Capa_1" xmlns="http://www.w3.org/2000/svg" xmlns:xlink="http://www.w3.org/1999/xlink" x="0px" y="0px"
	 viewBox="0 0 612 792" style="enable-background:new 0 0 612 792;" xml:space="preserve">
<style type="text/css">
	.st0{fill:#B1B1B1;}
	.st1{fill:#052748;}
</style>
<g>
	<g>
		<path d="M583.12,475.22c-184.74,0-369.48,0-554.25,0c0-103.9,0-207.81,0-311.76c184.73,0,369.49,0,554.25,0
			C583.12,267.36,583.12,371.28,583.12,475.22z M93.76,341.45c-0.83,0-1.34,0-1.85,0c-10.63,0-21.27,0-31.9,0
			c-0.38,0-0.77,0.02-1.15,0c-0.48-0.02-0.82,0.18-1.08,0.58c-0.26,0.4-0.55,0.79-0.81,1.19c-3.82,5.66-7.54,11.38-11.04,17.25
			c-4.23,7.09-7.75,14.49-9.82,22.52c-1.84,7.16-2.52,14.38-1.21,21.71c1.3,7.26,4.51,13.54,9.69,18.81c3.68,3.74,8,6.6,12.63,9
			c8.44,4.38,17.44,7.05,26.71,8.92c11.69,2.36,23.53,3.2,35.43,3.21c28.91,0.02,57.83,0,86.74,0.01c35.65,0,71.29,0,106.94,0
			c19.34,0,38.67,0,58.01,0c11.88,0,23.76-0.28,35.61-1.13c8.06-0.58,16.09-1.4,24.08-2.62c9.47-1.45,18.8-3.46,27.95-6.34
			c8.05-2.54,15.8-5.78,23.16-9.9c12.71-7.11,23.45-16.54,32.72-27.72c4.98-6.01,9.46-12.36,13.74-18.88
			c5.14-7.84,9.41-16.09,12.17-25.09c2.44-7.94,3.72-16,2.8-24.32c-0.59-5.37-2.1-10.45-4.68-15.2
			c-3.43-6.34-8.31-11.38-14.14-15.55c-0.41-0.29-0.8-0.6-1.2-0.91c0.03-0.08,0.05-0.15,0.08-0.23c0.56,0,1.12,0,1.68,0
			c9.77,0,19.53,0,29.3,0.01c0.81,0,1.4-0.07,1.88-0.92c4.28-7.63,8.66-15.21,12.91-22.86c3.35-6.03,6.15-12.3,7.8-19.03
			c1.26-5.09,1.69-10.24,0.78-15.45c-1.11-6.34-3.89-11.94-7.62-17.11c-5.74-7.93-13.44-13.37-22.3-17.29
			c-9.4-4.17-19.32-6.39-29.45-7.79c-8.78-1.22-17.61-1.75-26.47-1.79c-24.39-0.1-48.78-0.15-73.17-0.21
			c-15.11-0.04-30.21-0.07-45.32-0.12c-18.95-0.06-37.91-0.15-56.86-0.19c-15.59-0.03-31.17-0.02-46.76,0.22
			c-12.41,0.19-24.82,0.48-37.22,1.04c-9.03,0.4-18.05,0.98-27.06,1.82c-7.57,0.71-15.11,1.58-22.58,2.96
			c-15.33,2.84-29.98,7.64-43.66,15.21c-11.16,6.17-21.08,13.9-29.68,23.33c-7.64,8.38-13.87,17.69-18.75,27.91
			c-5.32,11.16-8.96,22.8-10.02,35.17c-0.54,6.32-0.28,12.59,1.21,18.78c1.67,6.95,4.71,13.19,9.56,18.51
			C92.22,339.72,92.87,340.46,93.76,341.45z"/>
		<path class="st0" d="M93.76,341.45c-0.89-0.99-1.54-1.73-2.21-2.46c-4.84-5.31-7.89-11.56-9.56-18.51
			c-1.49-6.19-1.75-12.46-1.21-18.78c1.06-12.37,4.7-24.02,10.02-35.17c4.87-10.22,11.11-19.53,18.75-27.91
			c8.6-9.43,18.52-17.16,29.68-23.33c13.69-7.57,28.33-12.37,43.66-15.21c7.48-1.39,15.02-2.25,22.58-2.96
			c9-0.84,18.03-1.42,27.06-1.82c12.4-0.55,24.81-0.85,37.22-1.04c15.59-0.23,31.17-0.25,46.76-0.22
			c18.95,0.04,37.91,0.13,56.86,0.19c15.11,0.05,30.21,0.08,45.32,0.12c24.39,0.06,48.78,0.11,73.17,0.21
			c8.86,0.04,17.69,0.57,26.47,1.79c10.13,1.4,20.05,3.62,29.45,7.79c8.86,3.93,16.56,9.36,22.3,17.29
			c3.74,5.16,6.52,10.76,7.62,17.11c0.91,5.21,0.48,10.35-0.78,15.45c-1.66,6.73-4.45,13-7.8,19.03
			c-4.25,7.65-8.63,15.22-12.91,22.86c-0.47,0.84-1.07,0.92-1.88,0.92c-9.77-0.02-19.53-0.01-29.3-0.01c-0.56,0-1.12,0-1.68,0
			c-0.03,0.08-0.05,0.15-0.08,0.23c0.4,0.3,0.79,0.62,1.2,0.91c5.83,4.17,10.71,9.21,14.14,15.55c2.57,4.75,4.09,9.83,4.68,15.2
			c0.91,8.32-0.37,16.39-2.8,24.32c-2.76,8.99-7.03,17.25-12.17,25.09c-4.27,6.52-8.76,12.87-13.74,18.88
			c-9.27,11.18-20.01,20.61-32.72,27.72c-7.37,4.12-15.12,7.36-23.16,9.9c-9.14,2.88-18.48,4.89-27.95,6.34
			c-7.99,1.22-16.02,2.04-24.08,2.62c-11.86,0.86-23.73,1.13-35.61,1.13c-19.34,0-38.67,0-58.01,0c-35.65,0-71.29,0-106.94,0
			c-28.91,0-57.83,0.01-86.74-0.01c-11.9-0.01-23.74-0.85-35.43-3.21c-9.27-1.87-18.28-4.55-26.71-8.92
			c-4.64-2.41-8.95-5.26-12.63-9c-5.18-5.26-8.39-11.54-9.69-18.81c-1.31-7.33-0.63-14.56,1.21-21.71
			c2.07-8.03,5.59-15.43,9.82-22.52c3.5-5.87,7.22-11.59,11.04-17.25c0.27-0.4,0.56-0.79,0.81-1.19c0.26-0.4,0.6-0.6,1.08-0.58
			c0.38,0.02,0.77,0,1.15,0c10.63,0,21.27,0,31.9,0C92.42,341.45,92.93,341.45,93.76,341.45z M484.76,295.43c0.85,0,1.36,0,1.87,0
			c7.84,0,15.68-0.02,23.53,0.02c0.92,0,1.48-0.23,1.94-1.07c3.58-6.53,7.27-13.01,10.81-19.57c3.14-5.82,5.67-11.89,6.93-18.42
			c1.35-6.96,0.99-13.78-1.71-20.39c-3.63-8.89-9.84-15.5-18.04-20.34c-7.39-4.36-15.46-6.79-23.82-8.37
			c-8.77-1.65-17.65-2.23-26.56-2.29c-19.67-0.14-39.35-0.2-59.02-0.28c-24-0.1-48.01-0.2-72.01-0.27
			c-25.21-0.07-50.41,0.01-75.61,1.04c-11.15,0.45-22.28,1.06-33.38,2.32c-7.27,0.83-14.46,2.09-21.53,3.98
			c-9.01,2.41-17.6,5.82-25.61,10.64c-10.24,6.16-18.67,14.29-25.75,23.87c-7.09,9.59-12.99,19.9-17.9,30.74
			c-4.45,9.82-6.36,20.15-4.84,30.94c1.89,13.4,8.29,24.12,19.37,31.98c0.37,0.26,0.74,0.54,1.26,0.93
			c-0.69,0.24-1.21,0.17-1.71,0.17c-12.27,0-24.54,0.02-36.8-0.03c-1.19,0-1.8,0.39-2.34,1.4c-3.4,6.31-6.89,12.56-10.28,18.87
			c-3.39,6.31-5.84,12.96-7.12,20.02c-1.16,6.41-1.26,12.83,0.35,19.18c2.66,10.5,8.83,18.33,18.28,23.56
			c5.69,3.15,11.84,5.03,18.17,6.36c9.25,1.94,18.65,2.7,28.07,3.14c11.53,0.53,23.08,0.54,34.62,0.6
			c22.66,0.12,45.31,0.18,67.97,0.21c16.36,0.03,32.71-0.02,49.07-0.04c15.78-0.02,31.55-0.05,47.33-0.35
			c14.71-0.29,29.43-0.39,44.09-2c9.43-1.03,18.77-2.54,27.92-5.07c10.26-2.83,19.98-6.9,28.89-12.78
			c9.58-6.32,17.58-14.29,24.53-23.36c6.33-8.27,11.75-17.12,16.59-26.33c3.77-7.18,6.77-14.66,8.45-22.62
			c1.69-7.99,1.7-15.93-0.7-23.8c-2.39-7.85-6.42-14.67-12.57-20.18C486.7,297.11,485.87,296.4,484.76,295.43z"/>
		<path d="M484.76,295.43c1.11,0.97,1.94,1.67,2.74,2.4c6.15,5.51,10.18,12.33,12.57,20.18c2.4,7.88,2.38,15.81,0.7,23.8
			c-1.68,7.97-4.67,15.44-8.45,22.62c-4.84,9.21-10.26,18.06-16.59,26.33c-6.94,9.07-14.95,17.04-24.53,23.36
			c-8.92,5.88-18.63,9.95-28.89,12.78c-9.15,2.53-18.49,4.04-27.92,5.07c-14.65,1.61-29.38,1.72-44.09,2
			c-15.77,0.31-31.55,0.33-47.33,0.35c-16.36,0.02-32.71,0.06-49.07,0.04c-22.66-0.04-45.31-0.09-67.97-0.21
			c-11.54-0.06-23.09-0.07-34.62-0.6c-9.42-0.44-18.81-1.2-28.07-3.14c-6.33-1.32-12.48-3.21-18.17-6.36
			c-9.46-5.24-15.63-13.06-18.28-23.56c-1.61-6.35-1.5-12.77-0.35-19.18c1.27-7.06,3.72-13.72,7.12-20.02
			c3.39-6.31,6.88-12.57,10.28-18.87c0.54-1.01,1.16-1.4,2.34-1.4c12.27,0.05,24.54,0.03,36.8,0.03c0.5,0,1.02,0.07,1.71-0.17
			c-0.52-0.39-0.89-0.67-1.26-0.93c-11.09-7.86-17.48-18.58-19.37-31.98c-1.52-10.79,0.39-21.12,4.84-30.94
			c4.91-10.84,10.81-21.15,17.9-30.74c7.08-9.57,15.51-17.7,25.75-23.87c8.01-4.82,16.6-8.24,25.61-10.64
			c7.07-1.89,14.25-3.16,21.53-3.98c11.09-1.26,22.23-1.87,33.38-2.32c25.19-1.02,50.4-1.11,75.61-1.04
			c24,0.06,48.01,0.17,72.01,0.27c19.67,0.08,39.35,0.13,59.02,0.28c8.91,0.06,17.78,0.64,26.56,2.29
			c8.37,1.57,16.44,4.01,23.82,8.37c8.2,4.84,14.41,11.45,18.04,20.34c2.7,6.62,3.06,13.43,1.71,20.39
			c-1.26,6.53-3.79,12.6-6.93,18.42c-3.54,6.56-7.23,13.04-10.81,19.57c-0.46,0.84-1.02,1.08-1.94,1.07
			c-7.84-0.04-15.68-0.02-23.53-0.02C486.12,295.43,485.61,295.43,484.76,295.43z M190.05,353.98c-11.26,0-22.52,0-33.77,0
			c-0.43,0-0.87,0.01-1.3,0.01c-0.6-0.01-1,0.25-1.24,0.8c-0.35,0.79-0.71,1.58-1.06,2.37c-2.4,5.3-4.99,10.52-6.97,16
			c-2.17,6.01-3.8,12.12-3.41,18.6c0.22,3.69,1.34,7.07,3.54,10.06c2.59,3.52,6.1,5.83,10.04,7.53c6.61,2.85,13.63,4.03,20.7,4.93
			c3.47,0.44,6.97,0.72,10.47,1c3.45,0.28,6.9,0.48,10.35,0.71c4.5,0.31,9.02,0.35,13.54,0.58c3.69,0.19,7.4,0.2,11.1,0.26
			c10.57,0.17,21.15,0.13,31.73,0.11c12.17-0.02,24.34,0.12,36.5-0.3c3.36-0.12,6.73-0.1,10.09-0.21
			c6.63-0.21,13.26-0.29,19.89-0.64c2.16-0.11,4.32-0.15,6.48-0.23c4.47-0.17,8.93-0.4,13.39-0.61c2.26-0.11,4.51-0.26,6.76-0.42
			c4.88-0.35,9.76-0.77,14.63-1.32c4.15-0.47,8.3-0.98,12.43-1.62c6.61-1.03,13.13-2.47,19.54-4.4c6.8-2.05,13.31-4.78,19.4-8.43
			c6.35-3.8,12.03-8.43,16.97-13.97c2.63-2.95,5.1-6.01,7.35-9.25c4.81-6.95,8.69-14.41,12.1-22.13c2.43-5.51,4.52-11.15,5.72-17.07
			c0.98-4.82,1.49-9.66,0.58-14.59c-1.08-5.79-4.04-10.33-8.68-13.82c-4.34-3.27-9.35-5.12-14.54-6.5
			c-7.69-2.04-15.58-2.94-23.5-3.44c-4.94-0.31-9.89-0.46-14.83-0.59c-7.59-0.2-15.19,0.01-22.79-0.22
			c-10.77-0.33-21.54,0.01-32.32-0.31c-9.9-0.29-19.81,0.03-29.72-0.28c-8.55-0.27-17.12,0.08-25.68-0.33
			c-2.93-0.14-5.86-0.03-8.79-0.25c-2.93-0.22-5.85-0.43-8.73-0.97c-2.9-0.55-5.72-1.38-8.15-3.13c-2.4-1.72-3.48-4.18-3.14-7.03
			c0.6-5.1,3.02-9.3,7.02-12.52c3.59-2.89,7.81-4.47,12.24-5.57c5.26-1.3,10.63-1.65,16-1.96c4.56-0.26,9.12-0.35,13.68-0.59
			c3.41-0.18,6.82-0.17,10.23-0.25c6.92-0.18,13.85-0.31,20.77-0.33c15.68-0.03,31.36-0.33,47.04,0.19
			c2.79,0.09,5.57,0.29,8.33,0.69c2.77,0.41,5.47,1.16,7.9,2.61c1.98,1.17,3.38,2.83,3.91,5.13c0.58,2.52,0.23,4.97-0.58,7.38
			c-0.72,2.13-0.9,2.17,1.59,2.17c22.37-0.01,44.74,0,67.12,0c0.34,0,0.67-0.02,1.01,0c0.72,0.05,1.19-0.25,1.46-0.92
			c0.27-0.67,0.57-1.33,0.85-1.99c2.37-5.42,4.73-10.86,6.36-16.56c1.31-4.59,2.21-9.23,1.64-14.08c-0.42-3.59-1.74-6.78-3.69-9.75
			c-2.98-4.53-7.28-7.5-12.1-9.73c-4.43-2.05-9.13-3.27-13.91-4.21c-7.19-1.41-14.48-1.9-21.77-2.23
			c-3.79-0.17-7.59-0.26-11.39-0.33c-6.92-0.14-13.85,0.02-20.77-0.22c-8.75-0.31-17.5-0.16-26.25-0.28
			c-12.45-0.17-24.91-0.32-37.37,0.14c-5.04,0.19-10.09-0.06-15.14,0.27c-3.45,0.23-6.92,0.11-10.38,0.28
			c-4.51,0.21-9.02,0.39-13.53,0.59c-5.09,0.22-10.17,0.5-15.25,0.92c-3.73,0.31-7.48,0.51-11.2,0.95
			c-5.24,0.62-10.49,1.22-15.7,2.18c-7.58,1.4-15.06,3.13-22.31,5.8c-9.01,3.33-17.33,7.84-24.63,14.15
			c-3.21,2.78-6.18,5.79-8.87,9.06c-4.75,5.78-8.61,12.15-12.05,18.79c-1.68,3.25-3.21,6.57-4.7,9.9
			c-2.52,5.63-4.77,11.35-6.17,17.38c-1.21,5.24-1.85,10.51-0.64,15.85c0.85,3.77,2.71,6.99,5.46,9.66
			c2.51,2.44,5.52,4.19,8.73,5.54c6.67,2.8,13.73,4,20.87,4.79c2.72,0.3,5.45,0.48,8.18,0.68c4.07,0.3,8.15,0.41,12.23,0.71
			c2.78,0.21,5.57,0.08,8.36,0.28c3.21,0.23,6.43,0.1,9.66,0.29c4.32,0.26,8.65,0.07,12.98,0.29c5.9,0.3,11.82,0.12,17.74,0.27
			c13.85,0.34,27.7-0.03,41.55,0.29c6.58,0.15,13.17,0.15,19.76-0.12c5.33-0.22,10.67-0.07,16.01,0.18c2.98,0.14,5.94,0.4,8.88,0.94
			c2.66,0.49,5.24,1.21,7.58,2.64c2.97,1.81,4.5,5.01,3.91,8.32c-0.46,2.62-1.51,4.96-2.75,7.25c-2.75,5.09-6.78,8.78-12.16,10.99
			c-3.73,1.53-7.63,2.31-11.61,2.76c-5.64,0.62-11.32,0.69-16.98,0.83c-11.01,0.26-22.02-0.01-33.04,0.28
			c-11.59,0.31-23.18-0.04-34.77,0.29c-6.92,0.19-13.85,0.21-20.77-0.21c-2.83-0.17-5.66-0.39-8.45-0.92
			c-2.85-0.55-5.62-1.33-8.05-3.01c-1.59-1.1-2.75-2.53-3.31-4.41c-0.57-1.91-0.45-3.81,0.07-5.69c0.47-1.67,1.08-3.29,1.78-4.88
			c0.81-1.84,0.77-1.86-1.21-1.86C212.76,353.98,201.41,353.98,190.05,353.98z"/>
		<path class="st1" d="M190.05,353.98c11.35,0,22.71,0,34.06,0c1.98,0,2.02,0.02,1.21,1.86c-0.7,1.59-1.31,3.21-1.78,4.88
			c-0.53,1.88-0.64,3.78-0.07,5.69c0.56,1.88,1.71,3.31,3.31,4.41c2.43,1.68,5.2,2.47,8.05,3.01c2.79,0.53,5.61,0.75,8.45,0.92
			c6.92,0.41,13.85,0.4,20.77,0.21c11.59-0.33,23.19,0.02,34.77-0.29c11.01-0.29,22.03-0.02,33.04-0.28
			c5.66-0.14,11.34-0.2,16.98-0.83c3.98-0.44,7.88-1.22,11.61-2.76c5.38-2.21,9.41-5.9,12.16-10.99c1.24-2.29,2.29-4.63,2.75-7.25
			c0.58-3.31-0.95-6.51-3.91-8.32c-2.34-1.43-4.92-2.16-7.58-2.64c-2.93-0.54-5.9-0.8-8.88-0.94c-5.34-0.25-10.68-0.4-16.01-0.18
			c-6.59,0.27-13.18,0.27-19.76,0.12c-13.85-0.32-27.71,0.05-41.55-0.29c-5.92-0.15-11.83,0.03-17.74-0.27
			c-4.33-0.22-8.66-0.03-12.98-0.29c-3.22-0.19-6.45-0.06-9.66-0.29c-2.79-0.2-5.58-0.08-8.36-0.28c-4.07-0.3-8.15-0.41-12.23-0.71
			c-2.73-0.2-5.46-0.38-8.18-0.68c-7.14-0.79-14.2-1.99-20.87-4.79c-3.21-1.35-6.21-3.1-8.73-5.54c-2.75-2.67-4.61-5.89-5.46-9.66
			c-1.21-5.35-0.57-10.61,0.64-15.85c1.4-6.02,3.65-11.75,6.17-17.38c1.49-3.34,3.02-6.66,4.7-9.9c3.44-6.63,7.3-13,12.05-18.79
			c2.69-3.27,5.65-6.29,8.87-9.06c7.3-6.31,15.61-10.82,24.63-14.15c7.25-2.67,14.73-4.41,22.31-5.8c5.2-0.96,10.45-1.56,15.7-2.18
			c3.72-0.44,7.46-0.65,11.2-0.95c5.08-0.41,10.16-0.7,15.25-0.92c4.51-0.19,9.02-0.38,13.53-0.59c3.46-0.16,6.93-0.05,10.38-0.28
			c5.05-0.34,10.1-0.09,15.14-0.27c12.46-0.46,24.92-0.31,37.37-0.14c8.75,0.12,17.51-0.03,26.25,0.28
			c6.93,0.24,13.85,0.08,20.77,0.22c3.8,0.08,7.6,0.16,11.39,0.33c7.29,0.33,14.58,0.82,21.77,2.23c4.78,0.94,9.49,2.15,13.91,4.21
			c4.82,2.23,9.11,5.2,12.1,9.73c1.95,2.97,3.28,6.15,3.69,9.75c0.56,4.84-0.33,9.49-1.64,14.08c-1.63,5.7-3.99,11.13-6.36,16.56
			c-0.29,0.66-0.58,1.32-0.85,1.99c-0.27,0.66-0.75,0.96-1.46,0.92c-0.34-0.02-0.67,0-1.01,0c-22.37,0-44.74,0-67.12,0
			c-2.49,0-2.3-0.04-1.59-2.17c0.81-2.41,1.16-4.85,0.58-7.38c-0.53-2.3-1.93-3.95-3.91-5.13c-2.43-1.45-5.13-2.2-7.9-2.61
			c-2.76-0.4-5.53-0.6-8.33-0.69c-15.68-0.53-31.36-0.22-47.04-0.19c-6.92,0.01-13.85,0.15-20.77,0.33
			c-3.41,0.09-6.83,0.08-10.23,0.25c-4.56,0.24-9.13,0.32-13.68,0.59c-5.37,0.31-10.74,0.66-16,1.96c-4.44,1.1-8.65,2.68-12.24,5.57
			c-3.99,3.22-6.42,7.42-7.02,12.52c-0.33,2.85,0.74,5.31,3.14,7.03c2.44,1.74,5.25,2.58,8.15,3.13c2.88,0.55,5.8,0.75,8.73,0.97
			c2.93,0.22,5.86,0.11,8.79,0.25c8.56,0.41,17.12,0.06,25.68,0.33c9.91,0.31,19.82-0.01,29.72,0.28
			c10.77,0.32,21.55-0.02,32.32,0.31c7.6,0.23,15.19,0.03,22.79,0.22c4.95,0.13,9.9,0.28,14.83,0.59c7.92,0.51,15.8,1.4,23.5,3.44
			c5.18,1.38,10.2,3.22,14.54,6.5c4.64,3.5,7.6,8.04,8.68,13.82c0.92,4.93,0.41,9.77-0.58,14.59c-1.21,5.92-3.29,11.56-5.72,17.07
			c-3.41,7.72-7.29,15.18-12.1,22.13c-2.24,3.24-4.71,6.31-7.35,9.25c-4.95,5.53-10.62,10.17-16.97,13.97
			c-6.1,3.64-12.6,6.38-19.4,8.43c-6.41,1.93-12.94,3.37-19.54,4.4c-4.13,0.64-8.27,1.16-12.43,1.62
			c-4.87,0.55-9.75,0.97-14.63,1.32c-2.25,0.16-4.51,0.31-6.76,0.42c-4.46,0.21-8.92,0.44-13.39,0.61
			c-2.16,0.08-4.32,0.12-6.48,0.23c-6.63,0.35-13.26,0.43-19.89,0.64c-3.36,0.11-6.73,0.09-10.09,0.21
			c-12.17,0.42-24.34,0.28-36.5,0.3c-10.58,0.02-21.15,0.05-31.73-0.11c-3.7-0.06-7.4-0.07-11.1-0.26
			c-4.51-0.23-9.03-0.27-13.54-0.58c-3.45-0.23-6.9-0.43-10.35-0.71c-3.5-0.28-6.99-0.56-10.47-1c-7.07-0.9-14.09-2.08-20.7-4.93
			c-3.94-1.7-7.45-4.01-10.04-7.53c-2.2-2.99-3.31-6.38-3.54-10.06c-0.39-6.48,1.24-12.59,3.41-18.6c1.98-5.48,4.58-10.7,6.97-16
			c0.36-0.79,0.72-1.58,1.06-2.37c0.24-0.55,0.64-0.81,1.24-0.8c0.43,0.01,0.87-0.01,1.3-0.01
			C167.54,353.98,178.8,353.98,190.05,353.98z"/>
	</g>
</g>
</svg>
